<svg xmlns="http://www.w3.org/2000/svg" width="100" height="130" viewBox="0 0 100 130" fill="none">
  <path d="M50 8C57 17 58 22 50 28C42 22 43 17 50 8Z" fill="#EAFBFF" stroke="#56B8F5" stroke-width="2.2" stroke-linejoin="round"/>
  <ellipse cx="14" cy="79" rx="8" ry="13" fill="#EAFBFF" stroke="#56B8F5" stroke-width="2.2" transform="rotate(16 14 79)"/>
  <ellipse cx="86" cy="79" rx="8" ry="13" fill="#EAFBFF" stroke="#56B8F5" stroke-width="2.2" transform="rotate(-16 86 79)"/>
  <path d="M50 29C60 25 68 30 72 35C82 32 91 40 89 50C96 56 96 66 91 72C96 82 90 94 81 98C77 108 65 112 56 109C50 114 41 113 35 108C23 111 12 101 13 89C5 83 4 70 9 62C5 52 10 40 20 37C27 28 39 27 50 29Z" fill="#EAFBFF" stroke="#56B8F5" stroke-width="2.4" stroke-linecap="round" stroke-linejoin="round"/>
  <path d="M19 89C27 101 39 107 51 107C65 107 76 101 83 91C80 102 70 110 57 109C50 114 41 113 35 108C27 110 20 103 19 89Z" fill="#56B8F5" opacity="0.72"/>
  <path d="M72 35C79 34 86 39 88 46C82 44 77 47 75 53C73 45 68 39 62 34C66 33 69 34 72 35Z" fill="#56B8F5" opacity="0.45"/>
  <path d="M27 46C31 43 36 43 40 46" stroke="#3A342E" stroke-width="2.4" stroke-linecap="round"/>
  <path d="M60 46C64 43 69 43 73 46" stroke="#3A342E" stroke-width="2.4" stroke-linecap="round"/>
  <ellipse cx="36" cy="65" rx="11" ry="15" fill="#FFFFFF" stroke="#D9F5FF" stroke-width="1"/>
  <ellipse cx="64" cy="65" rx="11" ry="15" fill="#FFFFFF" stroke="#D9F5FF" stroke-width="1"/>
  <ellipse cx="38.5" cy="68" rx="6.1" ry="9.2" fill="#2B2620"/>
  <ellipse cx="61.5" cy="68" rx="6.1" ry="9.2" fill="#2B2620"/>
  <ellipse cx="36.3" cy="63.5" rx="2.5" ry="3.5" fill="#FFFFFF"/>
  <ellipse cx="59.3" cy="63.5" rx="2.5" ry="3.5" fill="#FFFFFF"/>
  <ellipse cx="22" cy="82" rx="7" ry="4.1" fill="#FF9F9F" opacity="0.68"/>
  <ellipse cx="78" cy="82" rx="7" ry="4.1" fill="#FF9F9F" opacity="0.68"/>
  <path d="M43 85C47 89 53 89 57 85" stroke="#3A342E" stroke-width="2.4" stroke-linecap="round"/>
  <ellipse cx="35" cy="113" rx="12" ry="7" fill="#56B8F5" transform="rotate(-7 35 113)"/>
  <ellipse cx="65" cy="113" rx="12" ry="7" fill="#56B8F5" transform="rotate(7 65 113)"/>
</svg>
