<svg xmlns="http://www.w3.org/2000/svg" width="100" height="130" viewBox="0 0 100 130" fill="none">
  <path d="M46 30C39 25 40 18 47 15C54 12 54 6 49 4" stroke="#6957C9" stroke-width="3.6" stroke-linecap="round"/>
  <path d="M60 29C54 25 55 20 60 17C66 14 66 9 62 7" stroke="#6957C9" stroke-width="3" stroke-linecap="round" opacity="0.72"/>
  <ellipse cx="11" cy="78" rx="8" ry="13" fill="#8F7AF5" stroke="#6957C9" stroke-width="2.2" transform="rotate(18 11 78)"/>
  <ellipse cx="89" cy="78" rx="8" ry="13" fill="#8F7AF5" stroke="#6957C9" stroke-width="2.2" transform="rotate(-18 89 78)"/>
  <path d="M16 42H84L80 96C79 106 69 112 58 112H42C31 112 21 106 20 96L16 42Z" fill="#8F7AF5" stroke="#6957C9" stroke-width="2.5" stroke-linejoin="round"/>
  <path d="M15 40C15 35 20 32 26 32H74C80 32 85 35 85 40C85 45 80 48 74 48H26C20 48 15 45 15 40Z" fill="#6957C9"/>
  <path d="M23 39C30 36 70 36 77 39C70 42 30 42 23 39Z" fill="#8F7AF5"/>
  <path d="M22 91C30 102 40 106 51 106C64 106 74 101 80 91V96C79 106 69 112 58 112H42C31 112 21 106 20 96L22 91Z" fill="#6957C9" opacity="0.75"/>
  <path d="M27 53C31 50 36 50 40 53" stroke="#3A342E" stroke-width="2.4" stroke-linecap="round"/>
  <path d="M60 53C64 50 69 50 73 53" stroke="#3A342E" stroke-width="2.4" stroke-linecap="round"/>
  <ellipse cx="36" cy="71" rx="10.5" ry="14.5" fill="#FFFFFF"/>
  <ellipse cx="64" cy="71" rx="10.5" ry="14.5" fill="#FFFFFF"/>
  <ellipse cx="38.5" cy="74" rx="6" ry="9" fill="#2B2620"/>
  <ellipse cx="61.5" cy="74" rx="6" ry="9" fill="#2B2620"/>
  <ellipse cx="36.2" cy="69.5" rx="2.4" ry="3.4" fill="#FFFFFF"/>
  <ellipse cx="59.2" cy="69.5" rx="2.4" ry="3.4" fill="#FFFFFF"/>
  <ellipse cx="22" cy="87" rx="6.7" ry="4" fill="#FF9F9F" opacity="0.72"/>
  <ellipse cx="78" cy="87" rx="6.7" ry="4" fill="#FF9F9F" opacity="0.72"/>
  <path d="M43 91C47 95 53 95 57 91" stroke="#3A342E" stroke-width="2.4" stroke-linecap="round"/>
  <ellipse cx="35" cy="114" rx="12" ry="7" fill="#6957C9" transform="rotate(-6 35 114)"/>
  <ellipse cx="65" cy="114" rx="12" ry="7" fill="#6957C9" transform="rotate(6 65 114)"/>
</svg>
